<mxfile host="app.diagrams.net" modified="2022-08-08T05:06:09.935Z" agent="5.0 (Macintosh; Intel Mac OS X 10_15_7) AppleWebKit/537.36 (KHTML, like Gecko) Chrome/103.0.0.0 Safari/537.36" etag="PVbJDsLQzN4AtDiVA8f9" version="20.2.2" type="github">
  <diagram id="iIo1VOdqqlazAGS29YO0" name="第 1 页">
    <mxGraphModel dx="2333" dy="2647" grid="0" gridSize="10" guides="1" tooltips="1" connect="1" arrows="1" fold="1" page="1" pageScale="1" pageWidth="3300" pageHeight="4681" math="0" shadow="0">
      <root>
        <mxCell id="0" />
        <mxCell id="1" parent="0" />
        <mxCell id="ehFY9bfY-wIoizmrNBvI-3" style="edgeStyle=orthogonalEdgeStyle;rounded=0;orthogonalLoop=1;jettySize=auto;html=1;entryX=0;entryY=0.5;entryDx=0;entryDy=0;fontSize=12;" parent="1" source="ehFY9bfY-wIoizmrNBvI-1" target="ehFY9bfY-wIoizmrNBvI-2" edge="1">
          <mxGeometry relative="1" as="geometry" />
        </mxCell>
        <mxCell id="ehFY9bfY-wIoizmrNBvI-1" value="&lt;font style=&quot;&quot;&gt;&lt;b style=&quot;font-size: 18px;&quot;&gt;流水线编排页面&lt;/b&gt;&lt;br&gt;&lt;br&gt;&lt;font size=&quot;3&quot;&gt;编辑、查看活动模板&lt;/font&gt;&lt;br&gt;&lt;/font&gt;" style="rounded=1;whiteSpace=wrap;html=1;" parent="1" vertex="1">
          <mxGeometry x="309" y="147" width="220" height="142" as="geometry" />
        </mxCell>
        <mxCell id="ehFY9bfY-wIoizmrNBvI-2" value="&lt;font style=&quot;&quot;&gt;&lt;b style=&quot;font-size: 18px;&quot;&gt;活动管理中心&lt;/b&gt;&lt;br&gt;&lt;br&gt;&lt;font size=&quot;3&quot;&gt;活动流程编排、下发任务&lt;/font&gt;&lt;br&gt;&lt;/font&gt;" style="rounded=1;whiteSpace=wrap;html=1;" parent="1" vertex="1">
          <mxGeometry x="753" y="147" width="221" height="142" as="geometry" />
        </mxCell>
        <mxCell id="ehFY9bfY-wIoizmrNBvI-4" value="&lt;font style=&quot;font-size: 16px;&quot;&gt;获取活动模板&lt;/font&gt;" style="text;html=1;align=center;verticalAlign=middle;resizable=0;points=[];autosize=1;strokeColor=none;fillColor=none;fontSize=12;" parent="1" vertex="1">
          <mxGeometry x="577" y="186" width="114" height="31" as="geometry" />
        </mxCell>
        <mxCell id="ehFY9bfY-wIoizmrNBvI-11" style="edgeStyle=orthogonalEdgeStyle;rounded=0;orthogonalLoop=1;jettySize=auto;html=1;fontSize=16;" parent="1" source="ehFY9bfY-wIoizmrNBvI-5" target="ehFY9bfY-wIoizmrNBvI-1" edge="1">
          <mxGeometry relative="1" as="geometry">
            <Array as="points">
              <mxPoint x="456" y="474" />
            </Array>
          </mxGeometry>
        </mxCell>
        <mxCell id="ehFY9bfY-wIoizmrNBvI-5" value="&lt;font style=&quot;&quot;&gt;&lt;b style=&quot;font-size: 18px;&quot;&gt;任务执行中心&lt;/b&gt;&lt;br&gt;&lt;br&gt;&lt;font size=&quot;3&quot;&gt;根据任务模版创建任务&lt;br&gt;&lt;/font&gt;&lt;br&gt;&lt;font style=&quot;font-size: 16px;&quot;&gt;回填task biz_id&lt;/font&gt;&lt;br&gt;&lt;/font&gt;" style="rounded=1;whiteSpace=wrap;html=1;" parent="1" vertex="1">
          <mxGeometry x="753" y="403" width="221" height="142" as="geometry" />
        </mxCell>
        <mxCell id="ehFY9bfY-wIoizmrNBvI-7" value="获取活动下绑定的任务模版" style="text;html=1;align=center;verticalAlign=middle;resizable=0;points=[];autosize=1;strokeColor=none;fillColor=none;fontSize=16;" parent="1" vertex="1">
          <mxGeometry x="624" y="329" width="210" height="31" as="geometry" />
        </mxCell>
        <mxCell id="ehFY9bfY-wIoizmrNBvI-8" value="" style="endArrow=classic;html=1;rounded=0;fontSize=16;" parent="1" edge="1">
          <mxGeometry width="50" height="50" relative="1" as="geometry">
            <mxPoint x="843" y="289" as="sourcePoint" />
            <mxPoint x="843" y="403" as="targetPoint" />
          </mxGeometry>
        </mxCell>
        <mxCell id="ehFY9bfY-wIoizmrNBvI-9" value="" style="endArrow=classic;html=1;rounded=0;fontSize=16;" parent="1" edge="1">
          <mxGeometry width="50" height="50" relative="1" as="geometry">
            <mxPoint x="888" y="403" as="sourcePoint" />
            <mxPoint x="888" y="288" as="targetPoint" />
          </mxGeometry>
        </mxCell>
        <mxCell id="ehFY9bfY-wIoizmrNBvI-10" value="返回预先创建好的任务模版" style="text;html=1;align=center;verticalAlign=middle;resizable=0;points=[];autosize=1;strokeColor=none;fillColor=none;fontSize=16;" parent="1" vertex="1">
          <mxGeometry x="899" y="333" width="210" height="31" as="geometry" />
        </mxCell>
        <mxCell id="ehFY9bfY-wIoizmrNBvI-12" value="任务展示下发状态" style="text;html=1;align=center;verticalAlign=middle;resizable=0;points=[];autosize=1;strokeColor=none;fillColor=none;fontSize=16;" parent="1" vertex="1">
          <mxGeometry x="513" y="436" width="146" height="31" as="geometry" />
        </mxCell>
        <mxCell id="ehFY9bfY-wIoizmrNBvI-20" style="edgeStyle=orthogonalEdgeStyle;rounded=0;orthogonalLoop=1;jettySize=auto;html=1;entryX=0.25;entryY=1;entryDx=0;entryDy=0;fontSize=16;" parent="1" source="ehFY9bfY-wIoizmrNBvI-13" target="ehFY9bfY-wIoizmrNBvI-5" edge="1">
          <mxGeometry relative="1" as="geometry" />
        </mxCell>
        <mxCell id="ehFY9bfY-wIoizmrNBvI-13" value="线下人工" style="rounded=0;whiteSpace=wrap;html=1;fontSize=16;" parent="1" vertex="1">
          <mxGeometry x="375" y="626" width="274" height="40" as="geometry" />
        </mxCell>
        <mxCell id="ehFY9bfY-wIoizmrNBvI-14" value="线上人工" style="rounded=0;whiteSpace=wrap;html=1;fontSize=16;" parent="1" vertex="1">
          <mxGeometry x="375" y="666" width="274" height="40" as="geometry" />
        </mxCell>
        <mxCell id="ehFY9bfY-wIoizmrNBvI-27" style="edgeStyle=orthogonalEdgeStyle;rounded=0;orthogonalLoop=1;jettySize=auto;html=1;entryX=0.5;entryY=1;entryDx=0;entryDy=0;entryPerimeter=0;fontSize=16;" parent="1" source="ehFY9bfY-wIoizmrNBvI-15" target="ehFY9bfY-wIoizmrNBvI-22" edge="1">
          <mxGeometry relative="1" as="geometry" />
        </mxCell>
        <mxCell id="ehFY9bfY-wIoizmrNBvI-15" value="线上api" style="rounded=0;whiteSpace=wrap;html=1;fontSize=16;" parent="1" vertex="1">
          <mxGeometry x="375" y="706" width="274" height="40" as="geometry" />
        </mxCell>
        <mxCell id="ehFY9bfY-wIoizmrNBvI-16" value="&lt;b&gt;任务&lt;br&gt;执行&lt;br&gt;领域&lt;/b&gt;" style="rounded=0;whiteSpace=wrap;html=1;fontSize=16;" parent="1" vertex="1">
          <mxGeometry x="314" y="626" width="61" height="120" as="geometry" />
        </mxCell>
        <mxCell id="ehFY9bfY-wIoizmrNBvI-17" value="" style="endArrow=classic;html=1;rounded=0;fontSize=16;entryX=0.5;entryY=0;entryDx=0;entryDy=0;" parent="1" target="ehFY9bfY-wIoizmrNBvI-16" edge="1">
          <mxGeometry width="50" height="50" relative="1" as="geometry">
            <mxPoint x="344" y="289" as="sourcePoint" />
            <mxPoint x="344" y="463" as="targetPoint" />
          </mxGeometry>
        </mxCell>
        <mxCell id="ehFY9bfY-wIoizmrNBvI-18" value="执行任务" style="text;html=1;align=center;verticalAlign=middle;resizable=0;points=[];autosize=1;strokeColor=none;fillColor=none;fontSize=16;" parent="1" vertex="1">
          <mxGeometry x="246" y="461" width="82" height="31" as="geometry" />
        </mxCell>
        <mxCell id="ehFY9bfY-wIoizmrNBvI-21" value="同步通知" style="text;html=1;align=center;verticalAlign=middle;resizable=0;points=[];autosize=1;strokeColor=none;fillColor=none;fontSize=16;" parent="1" vertex="1">
          <mxGeometry x="683" y="613" width="82" height="31" as="geometry" />
        </mxCell>
        <mxCell id="ehFY9bfY-wIoizmrNBvI-28" style="edgeStyle=orthogonalEdgeStyle;rounded=0;orthogonalLoop=1;jettySize=auto;html=1;fontSize=16;" parent="1" source="ehFY9bfY-wIoizmrNBvI-22" edge="1">
          <mxGeometry relative="1" as="geometry">
            <mxPoint x="937" y="548.875" as="targetPoint" />
          </mxGeometry>
        </mxCell>
        <mxCell id="ehFY9bfY-wIoizmrNBvI-22" value="" style="shape=cylinder3;whiteSpace=wrap;html=1;boundedLbl=1;backgroundOutline=1;size=15;fontSize=16;rotation=90;" parent="1" vertex="1">
          <mxGeometry x="844" y="686" width="60" height="80" as="geometry" />
        </mxCell>
        <mxCell id="ehFY9bfY-wIoizmrNBvI-23" value="&lt;b&gt;MQ&lt;/b&gt;" style="text;html=1;align=center;verticalAlign=middle;resizable=0;points=[];autosize=1;strokeColor=none;fillColor=none;fontSize=16;" parent="1" vertex="1">
          <mxGeometry x="841.5" y="710.5" width="44" height="31" as="geometry" />
        </mxCell>
        <mxCell id="ehFY9bfY-wIoizmrNBvI-29" value="异步通知" style="text;html=1;align=center;verticalAlign=middle;resizable=0;points=[];autosize=1;strokeColor=none;fillColor=none;fontSize=16;" parent="1" vertex="1">
          <mxGeometry x="955" y="630.5" width="82" height="31" as="geometry" />
        </mxCell>
        <mxCell id="dUUcE68Gfqw0NFtzMeoE-2" value="" style="rounded=0;whiteSpace=wrap;html=1;" parent="1" vertex="1">
          <mxGeometry x="423" y="1193" width="593" height="805" as="geometry" />
        </mxCell>
        <mxCell id="dUUcE68Gfqw0NFtzMeoE-3" value="" style="rounded=0;whiteSpace=wrap;html=1;" parent="1" vertex="1">
          <mxGeometry x="1297" y="1199" width="593" height="805" as="geometry" />
        </mxCell>
        <mxCell id="dUUcE68Gfqw0NFtzMeoE-23" style="edgeStyle=orthogonalEdgeStyle;rounded=0;orthogonalLoop=1;jettySize=auto;html=1;entryX=0;entryY=0.5;entryDx=0;entryDy=0;fontSize=27;startArrow=none;startFill=0;endArrow=classicThin;endFill=1;exitX=0.5;exitY=0;exitDx=0;exitDy=0;" parent="1" source="dUUcE68Gfqw0NFtzMeoE-4" target="dUUcE68Gfqw0NFtzMeoE-5" edge="1">
          <mxGeometry relative="1" as="geometry" />
        </mxCell>
        <mxCell id="dUUcE68Gfqw0NFtzMeoE-4" value="&lt;font style=&quot;font-size: 27px;&quot;&gt;client&lt;/font&gt;" style="rounded=1;whiteSpace=wrap;html=1;" parent="1" vertex="1">
          <mxGeometry x="482" y="1569" width="158" height="96" as="geometry" />
        </mxCell>
        <mxCell id="dUUcE68Gfqw0NFtzMeoE-21" style="edgeStyle=orthogonalEdgeStyle;rounded=0;orthogonalLoop=1;jettySize=auto;html=1;fontSize=27;startArrow=none;startFill=0;endArrow=classicThin;endFill=1;" parent="1" source="dUUcE68Gfqw0NFtzMeoE-5" target="dUUcE68Gfqw0NFtzMeoE-7" edge="1">
          <mxGeometry relative="1" as="geometry" />
        </mxCell>
        <mxCell id="dUUcE68Gfqw0NFtzMeoE-5" value="&lt;font style=&quot;font-size: 27px;&quot;&gt;GenericImplFilter&lt;/font&gt;" style="rounded=1;whiteSpace=wrap;html=1;" parent="1" vertex="1">
          <mxGeometry x="699" y="1331" width="251" height="80" as="geometry" />
        </mxCell>
        <mxCell id="dUUcE68Gfqw0NFtzMeoE-22" style="edgeStyle=orthogonalEdgeStyle;rounded=0;orthogonalLoop=1;jettySize=auto;html=1;fontSize=27;startArrow=none;startFill=0;endArrow=classicThin;endFill=1;" parent="1" source="dUUcE68Gfqw0NFtzMeoE-6" target="dUUcE68Gfqw0NFtzMeoE-4" edge="1">
          <mxGeometry relative="1" as="geometry" />
        </mxCell>
        <mxCell id="dUUcE68Gfqw0NFtzMeoE-6" value="&lt;font style=&quot;font-size: 27px;&quot;&gt;GenericImplFilter&lt;/font&gt;" style="rounded=1;whiteSpace=wrap;html=1;" parent="1" vertex="1">
          <mxGeometry x="701" y="1779" width="251" height="80" as="geometry" />
        </mxCell>
        <mxCell id="dUUcE68Gfqw0NFtzMeoE-7" value="&lt;font style=&quot;font-size: 27px;&quot;&gt;GenericFilter&lt;/font&gt;" style="rounded=1;whiteSpace=wrap;html=1;" parent="1" vertex="1">
          <mxGeometry x="1357" y="1329" width="251" height="80" as="geometry" />
        </mxCell>
        <mxCell id="dUUcE68Gfqw0NFtzMeoE-20" style="edgeStyle=orthogonalEdgeStyle;rounded=0;orthogonalLoop=1;jettySize=auto;html=1;exitX=0;exitY=0.5;exitDx=0;exitDy=0;entryX=1;entryY=0.5;entryDx=0;entryDy=0;fontSize=27;startArrow=none;startFill=0;endArrow=classicThin;endFill=1;" parent="1" source="dUUcE68Gfqw0NFtzMeoE-8" target="dUUcE68Gfqw0NFtzMeoE-6" edge="1">
          <mxGeometry relative="1" as="geometry" />
        </mxCell>
        <mxCell id="dUUcE68Gfqw0NFtzMeoE-8" value="&lt;font style=&quot;font-size: 27px;&quot;&gt;GenericFilter&lt;/font&gt;" style="rounded=1;whiteSpace=wrap;html=1;" parent="1" vertex="1">
          <mxGeometry x="1351" y="1779" width="251" height="80" as="geometry" />
        </mxCell>
        <mxCell id="dUUcE68Gfqw0NFtzMeoE-18" style="edgeStyle=orthogonalEdgeStyle;rounded=0;orthogonalLoop=1;jettySize=auto;html=1;exitX=0.5;exitY=0;exitDx=0;exitDy=0;entryX=1;entryY=0.5;entryDx=0;entryDy=0;fontSize=27;startArrow=classicThin;startFill=1;endArrow=none;endFill=0;" parent="1" source="dUUcE68Gfqw0NFtzMeoE-9" target="dUUcE68Gfqw0NFtzMeoE-7" edge="1">
          <mxGeometry relative="1" as="geometry" />
        </mxCell>
        <mxCell id="dUUcE68Gfqw0NFtzMeoE-19" style="edgeStyle=orthogonalEdgeStyle;rounded=0;orthogonalLoop=1;jettySize=auto;html=1;entryX=1;entryY=0.5;entryDx=0;entryDy=0;fontSize=27;startArrow=none;startFill=0;endArrow=classicThin;endFill=1;" parent="1" source="dUUcE68Gfqw0NFtzMeoE-9" target="dUUcE68Gfqw0NFtzMeoE-8" edge="1">
          <mxGeometry relative="1" as="geometry">
            <Array as="points">
              <mxPoint x="1764" y="1819" />
            </Array>
          </mxGeometry>
        </mxCell>
        <mxCell id="dUUcE68Gfqw0NFtzMeoE-9" value="&lt;font style=&quot;font-size: 27px;&quot;&gt;Service&lt;/font&gt;" style="rounded=1;whiteSpace=wrap;html=1;" parent="1" vertex="1">
          <mxGeometry x="1685" y="1569" width="158" height="96" as="geometry" />
        </mxCell>
        <mxCell id="dUUcE68Gfqw0NFtzMeoE-24" value="Consumer端" style="rounded=0;whiteSpace=wrap;html=1;fontSize=27;" parent="1" vertex="1">
          <mxGeometry x="423" y="1193" width="201" height="88" as="geometry" />
        </mxCell>
        <mxCell id="dUUcE68Gfqw0NFtzMeoE-25" value="Consumer端" style="rounded=0;whiteSpace=wrap;html=1;fontSize=27;" parent="1" vertex="1">
          <mxGeometry x="1297" y="1199" width="201" height="88" as="geometry" />
        </mxCell>
        <mxCell id="dUUcE68Gfqw0NFtzMeoE-26" value="负责provider端参数转换&lt;br&gt;将HashMap转化成对应POJO" style="text;html=1;strokeColor=none;fillColor=none;align=center;verticalAlign=middle;whiteSpace=wrap;rounded=0;fontSize=21;" parent="1" vertex="1">
          <mxGeometry x="1347" y="1419" width="282" height="53" as="geometry" />
        </mxCell>
        <mxCell id="dUUcE68Gfqw0NFtzMeoE-27" value="负责provider端参数转换&lt;br&gt;将POJO转化成对应HashMap" style="text;html=1;strokeColor=none;fillColor=none;align=center;verticalAlign=middle;whiteSpace=wrap;rounded=0;fontSize=21;" parent="1" vertex="1">
          <mxGeometry x="1344" y="1874" width="282" height="53" as="geometry" />
        </mxCell>
        <mxCell id="dUUcE68Gfqw0NFtzMeoE-28" value="负责consumer端参数转换&lt;br&gt;将POJO转化成HashMap" style="text;html=1;strokeColor=none;fillColor=none;align=center;verticalAlign=middle;whiteSpace=wrap;rounded=0;fontSize=21;" parent="1" vertex="1">
          <mxGeometry x="685.5" y="1435" width="282" height="53" as="geometry" />
        </mxCell>
        <mxCell id="dUUcE68Gfqw0NFtzMeoE-29" value="负责consumer端参数转换&lt;br&gt;将HashMap转化成POJO" style="text;html=1;strokeColor=none;fillColor=none;align=center;verticalAlign=middle;whiteSpace=wrap;rounded=0;fontSize=21;" parent="1" vertex="1">
          <mxGeometry x="680" y="1874" width="282" height="53" as="geometry" />
        </mxCell>
      </root>
    </mxGraphModel>
  </diagram>
</mxfile>
